<svg width="30.000000" height="30.000000" viewBox="0 0 30 30" fill="none" xmlns="http://www.w3.org/2000/svg" xmlns:xlink="http://www.w3.org/1999/xlink">
	<desc>
			Created with Pixso.
	</desc>
	<defs>
		<clipPath id="clip655_896">
			<rect id="settings 1" width="30.000000" height="30.000000" fill="white" fill-opacity="0"/>
		</clipPath>
	</defs>
	<rect id="settings 1" width="30.000000" height="30.000000" fill="#FFFFFF" fill-opacity="0"/>
	<g clip-path="url(#clip655_896)">
		<path id="Vector" d="M27.3008 15.9077C27.3438 15.3018 27.3438 14.6992 27.3008 14.0923L29.5664 11.9897C29.9688 11.6172 30.0586 11.0171 29.7852 10.5435L26.2578 4.4541C25.9844 3.98242 25.4219 3.76074 24.9023 3.9209L21.9414 4.82764C21.4375 4.48438 20.9062 4.17871 20.3594 3.91455L19.668 0.90918C19.543 0.376953 19.0703 0 18.5234 0L11.4766 0C10.9297 0 10.457 0.376953 10.332 0.90918L9.64062 3.91455C9.09375 4.17871 8.5625 4.48438 8.05859 4.82764L5.09766 3.9209C4.57812 3.76074 4.01562 3.98242 3.74219 4.4541L0.214844 10.5435C-0.0585938 11.0171 0.03125 11.6172 0.433594 11.9897L2.69922 14.0923C2.65625 14.6982 2.65625 15.3008 2.69922 15.9077L0.433594 18.0103C0.03125 18.3828 -0.0585938 18.9829 0.214844 19.4565L3.74219 25.5459C4.01562 26.0176 4.57812 26.2388 5.09766 26.0791L8.05859 25.1724C8.5625 25.5156 9.09375 25.8213 9.64062 26.0854L10.332 29.0908C10.457 29.623 10.9297 30 11.4766 30L18.5234 30C19.0703 30 19.543 29.623 19.668 29.0908L20.3594 26.0854C20.9062 25.8213 21.4375 25.5156 21.9414 25.1724L24.9023 26.0791C25.4219 26.2388 25.9844 26.0176 26.2578 25.5459L29.7852 19.4565C30.0586 18.9829 29.9688 18.3828 29.5664 18.0103L27.3008 15.9077ZM24.9141 13.7715C25.0156 14.5894 25.0156 15.4102 24.9141 16.2285C24.8672 16.6021 25.0039 16.9751 25.2812 17.231L27.2852 19.0918L24.6953 23.5654L22.0742 22.7617C21.7148 22.6514 21.3242 22.7202 21.0234 22.9468C20.3633 23.4443 19.6484 23.8584 18.8906 24.1772C18.543 24.3237 18.2891 24.6274 18.2031 24.9941L17.5938 27.6562L12.4062 27.6562L11.7969 24.9941C11.7109 24.6274 11.457 24.3237 11.1094 24.1772C10.3516 23.8584 9.63672 23.4443 8.97656 22.9468C8.67578 22.7207 8.28516 22.6514 7.92578 22.7617L5.30469 23.5654L2.71484 19.0918L4.71875 17.231C4.99609 16.9751 5.13281 16.6021 5.08594 16.2285C4.98438 15.4106 4.98438 14.5898 5.08594 13.7715C5.13281 13.3979 4.99609 13.0249 4.71875 12.769L2.71484 10.9077L5.30469 6.43457L7.92578 7.23828C8.28516 7.34814 8.67578 7.2793 8.97656 7.05322C9.63672 6.55566 10.3516 6.1416 11.1094 5.82275C11.457 5.67627 11.7109 5.37256 11.7969 5.00586L12.4062 2.34375L17.5938 2.34375L18.2031 5.00586C18.2891 5.37256 18.543 5.67627 18.8906 5.82275C19.6484 6.1416 20.3633 6.55566 21.0234 7.05322C21.3242 7.2793 21.7148 7.34814 22.0742 7.23828L24.6953 6.43457L27.2852 10.9077L25.2812 12.769C25.0039 13.0249 24.8672 13.3979 24.9141 13.7715Z" fill="#141414" fill-opacity="1.000000" fill-rule="nonzero"/>
		<path id="Vector" d="M15 10.3125C12.4141 10.3125 10.3125 12.4155 10.3125 15C10.3125 17.5845 12.4141 19.6875 15 19.6875C17.5859 19.6875 19.6875 17.5845 19.6875 15C19.6875 12.4155 17.5859 10.3125 15 10.3125ZM15 17.3438C13.707 17.3438 12.6562 16.2925 12.6562 15C12.6562 13.7075 13.707 12.6562 15 12.6562C16.293 12.6562 17.3438 13.7075 17.3438 15C17.3438 16.2925 16.293 17.3438 15 17.3438Z" fill="#141414" fill-opacity="1.000000" fill-rule="nonzero"/>
	</g>
</svg>
