<svg width="30.000000" height="30.000000" viewBox="0 0 30 30" fill="none" xmlns="http://www.w3.org/2000/svg" xmlns:xlink="http://www.w3.org/1999/xlink">
	<desc>
			Created with Pixso.
	</desc>
	<defs>
		<clipPath id="clip655_906">
			<rect id="water 1" width="30.000000" height="30.000000" fill="white" fill-opacity="0"/>
		</clipPath>
	</defs>
	<rect id="water 1" width="30.000000" height="30.000000" fill="#FFFFFF" fill-opacity="0"/>
	<g clip-path="url(#clip655_906)">
		<path id="Vector" d="M22.5234 23.5776C20.5117 25.3447 17.8828 26.4844 15 26.4844C13.3398 26.4844 11.7812 26.0396 10.3594 25.3989L11.168 29.4365C12.3906 29.7632 13.6719 30 15 30C18.8555 30 22.3594 28.4668 25.0117 26.0674L26.1875 27.2417L27.4219 21.0283L21.2148 22.2695L22.5234 23.5776Z" fill="#141414" fill-opacity="1.000000" fill-rule="nonzero"/>
		<path id="Vector" d="M6.42188 22.5229C4.65625 20.5107 3.51562 17.8823 3.51562 15C3.51562 13.3418 3.96094 11.7817 4.60156 10.3604L0.5625 11.168C0.238281 12.3906 0 13.6738 0 15C0 18.8574 1.53125 22.3613 3.93359 25.0127L2.76172 26.1846L8.97266 27.4277L7.73047 21.2153L6.42188 22.5229Z" fill="#141414" fill-opacity="1.000000" fill-rule="nonzero"/>
		<path id="Vector" d="M19.6406 4.60107L18.8359 0.562988C17.6094 0.236816 16.3281 0 15 0C11.1445 0 7.64062 1.53271 4.98828 3.93262L3.81641 2.75977L2.57422 8.97314L8.78516 7.73047L7.48047 6.42236C9.49219 4.65527 12.1211 3.51562 15 3.51562C16.6602 3.51562 18.2188 3.95996 19.6406 4.60107Z" fill="#141414" fill-opacity="1.000000" fill-rule="nonzero"/>
		<path id="Vector" d="M27.2422 3.81543L21.0273 2.57275L22.2695 8.78516L23.5781 7.47705C25.3438 9.48975 26.4844 12.1182 26.4844 15C26.4844 16.6587 26.0391 18.2192 25.3984 19.6411L29.4375 18.8335C29.7656 17.6104 30 16.3271 30 15C30 11.1431 28.4688 7.63867 26.0664 4.98779L27.2422 3.81543Z" fill="#141414" fill-opacity="1.000000" fill-rule="nonzero"/>
	</g>
</svg>
