<svg width="34.000000" height="35.959961" viewBox="0 0 34 35.96" fill="none" xmlns="http://www.w3.org/2000/svg" xmlns:xlink="http://www.w3.org/1999/xlink">
	<desc>
			Created with Pixso.
	</desc>
	<defs/>
	<path id="Vector" d="M33.0352 19.3926L28.1797 11.7085L27.8438 13.9263L25.4219 13.166L30.2852 20.8682L30.3086 20.9072C30.6406 21.3931 30.8125 21.9536 30.8125 22.5298C30.8125 24.2178 29.3242 25.5938 27.4844 25.6172L27.4609 25.6157L27.4102 25.6177L20.8398 25.6177L20.8398 23.6743L16.1328 27.0747L20.8398 30.4751L20.8398 28.5322L27.4375 28.5322C27.4375 28.5322 27.4414 28.5322 27.4414 28.5322L27.4609 28.5317C31.0703 28.5195 34 25.8315 34 22.5298C34 21.4189 33.668 20.335 33.0352 19.3926Z" fill="#141414" fill-opacity="1.000000" fill-rule="nonzero"/>
	<path id="Vector" d="M13.3867 27.0176L14.9805 25.6172L6.5625 25.6172C5.35938 25.6172 4.23828 25.0254 3.63672 24.0732C3.03516 23.1211 3.03516 21.938 3.63672 20.9854L6.60547 16.2847L8.42578 17.2671L7.61719 11.8311L2.01953 13.8086L3.85938 14.8022L0.875 19.5283C-0.292969 21.3794 -0.292969 23.6792 0.875 25.5308C2.04688 27.3818 4.22266 28.5317 6.5625 28.5317L14.9805 28.5317L13.3867 27.0176Z" fill="#141414" fill-opacity="1.000000" fill-rule="nonzero"/>
	<path id="Vector" d="M9.5625 11.6084L14.0781 4.4585C14.6797 3.50635 15.7969 2.91455 17 2.91455C18.2031 2.91455 19.3242 3.50635 19.9258 4.4585L22.4453 8.44775L20.5352 9.42334L26.0781 11.5215L27.0273 6.10498L25.2266 7.02539L22.6875 3.00098C21.5156 1.1499 19.3398 0 17 0C14.6641 0 12.4844 1.1499 11.3164 3.00098L6.80078 10.1514L9.17188 9.41309L9.5625 11.6084Z" fill="#141414" fill-opacity="1.000000" fill-rule="nonzero"/>
	<path id="Vector" d="M18.5859 21.5522L18.5859 19.4199L19.8906 19.4199L19.8906 17.4565L18.5859 17.4565L18.5859 10.8652L16.543 10.8652L11.7891 17.8491L11.7891 19.4199L16.4062 19.4199L16.4062 21.5522L18.5859 21.5522ZM14.3359 17.4849L16.4375 14.4272L16.4062 15.2407L16.4062 17.4824L14.3359 17.4849Z" fill="#141414" fill-opacity="1.000000" fill-rule="nonzero"/>
	<path id="Vector" d="M8.79688 30.667L7.41797 30.667L7.41797 35.9595L11.2422 35.9595L11.2422 35.0098L8.79688 35.0098L8.79688 30.667Z" fill="#141414" fill-opacity="1.000000" fill-rule="nonzero"/>
	<path id="Vector" d="M13.8828 30.667L11.8516 30.667L11.8516 35.9595L13.8828 35.9595C15.8555 35.9595 16.6797 35.2812 16.6797 33.4492L16.6797 33.1777C16.6797 31.3457 15.8555 30.667 13.8828 30.667ZM15.2773 33.4492C15.2773 34.5078 14.9531 35.0098 13.8086 35.0098L13.2305 35.0098L13.2305 31.6172L13.8086 31.6172C14.9531 31.6172 15.2773 32.1191 15.2773 33.1777L15.2773 33.4492Z" fill="#141414" fill-opacity="1.000000" fill-rule="nonzero"/>
	<path id="Vector" d="M19.6641 30.667L17.4883 30.667L17.4883 35.9595L18.8672 35.9595L18.8672 34.0596L19.6641 34.0596C20.7461 34.0596 21.9688 33.8428 21.9688 32.4312L21.9688 32.2954C21.9688 30.8911 20.7461 30.667 19.6641 30.667ZM20.5742 32.3975C20.5742 32.9946 20.0977 33.1099 19.7227 33.1099L18.8672 33.1099L18.8672 31.6172L19.7227 31.6172C20.0977 31.6172 20.5742 31.7324 20.5742 32.3296L20.5742 32.3975Z" fill="#141414" fill-opacity="1.000000" fill-rule="nonzero"/>
	<path id="Vector" d="M22.6602 35.9595L26.7148 35.9595L26.7148 35.0098L24.0391 35.0098L24.0391 33.7339L26.2891 33.7339L26.2891 32.7842L24.0391 32.7842L24.0391 31.6172L26.7148 31.6172L26.7148 30.667L22.6602 30.667L22.6602 35.9595Z" fill="#141414" fill-opacity="1.000000" fill-rule="nonzero"/>
</svg>
