<svg width="31.000000" height="31.000000" viewBox="0 0 31 31" fill="none" xmlns="http://www.w3.org/2000/svg" xmlns:xlink="http://www.w3.org/1999/xlink">
	<desc>
			Created with Pixso.
	</desc>
	<defs>
		<clipPath id="clip655_920">
			<rect id="timer 1" width="31.000000" height="31.000000" fill="white" fill-opacity="0"/>
		</clipPath>
	</defs>
	<rect id="timer 1" width="31.000000" height="31.000000" fill="#FFFFFF" fill-opacity="0"/>
	<g clip-path="url(#clip655_920)">
		<path id="Vector" d="M24.8906 9.22803L26.7461 7.37207L24.918 5.54492L22.9336 7.53027C21.1211 6.24512 19.0039 5.45264 16.7891 5.23145L16.7891 2.5835L19.375 2.5835L19.375 0L11.625 0L11.625 2.5835L14.207 2.5835L14.207 5.23145C11.9961 5.45264 9.87891 6.24512 8.0625 7.53027L6.07812 5.54492L4.25391 7.37207L6.10938 9.22803C4.375 11.0625 3.21875 13.3643 2.77734 15.8491C2.33984 18.3335 2.63672 20.8926 3.63672 23.21C4.63672 25.5269 6.29297 27.501 8.39844 28.8877C10.5078 30.2749 12.9766 31.0137 15.5 31.0137C18.0234 31.0137 20.4883 30.2749 22.5977 28.8877C24.707 27.501 26.3633 25.5269 27.3594 23.21C28.3594 20.8926 28.6562 18.3335 28.2188 15.8491C27.7773 13.3643 26.6211 11.0625 24.8906 9.22803ZM15.5 28.4165C13.4531 28.4165 11.457 27.8105 9.75781 26.6753C8.05859 25.5396 6.73438 23.9258 5.95312 22.0376C5.16797 20.1494 4.96484 18.0718 5.36328 16.0674C5.76172 14.063 6.74609 12.2217 8.19141 10.7764C9.63672 9.33154 11.4766 8.34717 13.4844 7.94873C15.4883 7.5498 17.5664 7.75439 19.4531 8.53662C21.3398 9.31885 22.957 10.6431 24.0898 12.3423C25.2266 14.042 25.832 16.0396 25.832 18.0835C25.8281 20.8228 24.7383 23.4497 22.8008 25.3867C20.8633 27.3237 18.2383 28.4136 15.5 28.4165Z" fill="#141414" fill-opacity="1.000000" fill-rule="nonzero"/>
		<path id="Vector" d="M15.5 10.333L15.5 18.083L7.75 18.083C7.75 19.6157 8.20312 21.1143 9.05469 22.3887C9.90625 23.6631 11.1172 24.6567 12.5352 25.2432C13.9492 25.8296 15.5078 25.9829 17.0117 25.6841C18.5156 25.3853 19.8945 24.647 20.9805 23.563C22.0625 22.479 22.8008 21.0981 23.1016 19.5947C23.3984 18.0918 23.2461 16.5332 22.6602 15.1172C22.0742 13.7012 21.082 12.4907 19.8047 11.6392C18.5312 10.7876 17.0312 10.333 15.5 10.333Z" fill="#141414" fill-opacity="1.000000" fill-rule="nonzero"/>
	</g>
</svg>
