<svg width="50.000000" height="68.000000" viewBox="0 0 50 68" fill="none" xmlns="http://www.w3.org/2000/svg" xmlns:xlink="http://www.w3.org/1999/xlink">
	<desc>
			Created with Pixso.
	</desc>
	<defs/>
	<path d="M25 0C12.7109 0 0 9.30518 0 24.8779C0 39.104 22.3047 66.0518 23.2539 67.187C23.6875 67.7017 24.3242 68 25 68C25.6758 68 26.3125 67.7017 26.7461 67.187C27.6953 66.0518 50 39.104 50 24.8779C50 11.1602 38.7852 0 25 0ZM25 40.7095C16.2305 40.7095 9.08984 33.6064 9.08984 24.8779C9.08984 16.1494 16.2305 9.04639 25 9.04639C33.7695 9.04639 40.9102 16.1494 40.9102 24.8779C40.9102 33.6064 33.7695 40.7095 25 40.7095Z" fill="#485BFA" fill-opacity="1.000000" fill-rule="nonzero"/>
</svg>
